<svg height="100%" version="1.1" width="100%" xmlns="http://www.w3.org/2000/svg" style="overflow: hidden; position: relative; left: -0.484375px;" viewBox="0 0 109 109" preserveAspectRatio="xMinYMin"><desc style="-webkit-tap-highlight-color: rgba(0, 0, 0, 0);">Created with Raphaël 2.0.2</desc><defs style="-webkit-tap-highlight-color: rgba(0, 0, 0, 0);"></defs><path fill="none" stroke="#bf0000" d="M22.38,14.75C24.63,16.38,28.189999999999998,21.46,28.75,24" stroke-width="3" stroke-linecap="round" stroke-linejoin="round" style="-webkit-tap-highlight-color: rgba(0, 0, 0, 0); stroke-linecap: round; stroke-linejoin: round;"></path><path fill="none" stroke="#bf0000" d="M10.37,33.08C11.979999999999999,33.559999999999995,13.989999999999998,33.43,15.639999999999999,33.22C21.599999999999998,32.46,29.159999999999997,31.799999999999997,35.74,30.84C37.24,30.62,38.83,30.41,40.34,30.68" stroke-width="3" stroke-linecap="round" stroke-linejoin="round" style="-webkit-tap-highlight-color: rgba(0, 0, 0, 0); stroke-linecap: round; stroke-linejoin: round;"></path><path fill="none" stroke="#bf0000" d="M16.23,46.31C17.4,46.68,18.96,46.49,20.16,46.300000000000004C24.15,45.68000000000001,28.490000000000002,45.1,31.740000000000002,44.330000000000005C33.09,44.010000000000005,35,43.75000000000001,36.39,43.75000000000001" stroke-width="3" stroke-linecap="round" stroke-linejoin="round" style="-webkit-tap-highlight-color: rgba(0, 0, 0, 0); stroke-linecap: round; stroke-linejoin: round;"></path><path fill="none" stroke="#bf0000" d="M16.73,58.58C17.75,58.93,19.19,58.73,20.26,58.62C24.060000000000002,58.22,29.830000000000002,57.449999999999996,32.81,56.849999999999994C34.260000000000005,56.559999999999995,35.75,56.37,37.03,56.709999999999994" stroke-width="3" stroke-linecap="round" stroke-linejoin="round" style="-webkit-tap-highlight-color: rgba(0, 0, 0, 0); stroke-linecap: round; stroke-linejoin: round;"></path><path fill="none" stroke="#bf0000" d="M15.64,70.4C16.35,71.01,16.72,71.77000000000001,16.76,72.69000000000001C17.55,76.45000000000002,18.470000000000002,82.54,19.28,87.74000000000001C19.44,88.79,19.6,89.80000000000001,19.76,90.74000000000001" stroke-width="3" stroke-linecap="round" stroke-linejoin="round" style="-webkit-tap-highlight-color: rgba(0, 0, 0, 0); stroke-linecap: round; stroke-linejoin: round;"></path><path fill="none" stroke="#bf0000" d="M17.75,72.05C23.84,71.14,29.34,70.35,35.17,69.38C36.870000000000005,69.1,37.9,70.67999999999999,37.660000000000004,71.96C36.81,76.41999999999999,36.050000000000004,78.86999999999999,34.78,84.74" stroke-width="3" stroke-linecap="round" stroke-linejoin="round" style="-webkit-tap-highlight-color: rgba(0, 0, 0, 0); stroke-linecap: round; stroke-linejoin: round;"></path><path fill="none" stroke="#bf0000" d="M20.47,88.3C24.529999999999998,87.84,28.229999999999997,87.11,33.26,86.38C34.18,86.25,35.14,86.11999999999999,36.16,85.99" stroke-width="3" stroke-linecap="round" stroke-linejoin="round" style="-webkit-tap-highlight-color: rgba(0, 0, 0, 0); stroke-linecap: round; stroke-linejoin: round;"></path><path fill="none" stroke="#bf5600" d="M46.37,26.71C48.68,27.3,51.04,27.130000000000003,53.37,26.86C63.339999999999996,25.72,75.19,24.63,83.14,23.8C85.5,23.55,87.52,23.59,89.85,23.94" stroke-width="3" stroke-linecap="round" stroke-linejoin="round" style="-webkit-tap-highlight-color: rgba(0, 0, 0, 0); stroke-linecap: round; stroke-linejoin: round;"></path><path fill="none" stroke="#bf5600" d="M65.76,13.25C66.82000000000001,14.31,67.35000000000001,15.33,67.35000000000001,16.5C67.35000000000001,25,67.28000000000002,33.53,67.16000000000001,36.96" stroke-width="3" stroke-linecap="round" stroke-linejoin="round" style="-webkit-tap-highlight-color: rgba(0, 0, 0, 0); stroke-linecap: round; stroke-linejoin: round;"></path><path fill="none" stroke="#bf5600" d="M52.53,38.58C54.75,39,56.68,38.879999999999995,58.510000000000005,38.66C64,38,71.21,37.1,78,36.47C79.61,36.32,81.63,36.18,83.23,36.51" stroke-width="3" stroke-linecap="round" stroke-linejoin="round" style="-webkit-tap-highlight-color: rgba(0, 0, 0, 0); stroke-linecap: round; stroke-linejoin: round;"></path><path fill="none" stroke="#bf5600" d="M46.14,48.1C46.03,52.03,44.44,60.1,43.54,62.45" stroke-width="3" stroke-linecap="round" stroke-linejoin="round" style="-webkit-tap-highlight-color: rgba(0, 0, 0, 0); stroke-linecap: round; stroke-linejoin: round;"></path><path fill="none" stroke="#bf5600" d="M47,49.96C58.42,48.69,75,46.25,88.35,45.68C97.5,45.29,88.78,52.82,87.61,54.03" stroke-width="3" stroke-linecap="round" stroke-linejoin="round" style="-webkit-tap-highlight-color: rgba(0, 0, 0, 0); stroke-linecap: round; stroke-linejoin: round;"></path><path fill="none" stroke="#bf5600" d="M59.49,59.25C59.99,60.77,60.2,62.34,59.78,64.08C57.02,75.69,53.24,87.02,44.52,94.69" stroke-width="3" stroke-linecap="round" stroke-linejoin="round" style="-webkit-tap-highlight-color: rgba(0, 0, 0, 0); stroke-linecap: round; stroke-linejoin: round;"></path><path fill="none" stroke="#bf5600" d="M71.64,56.26C72.75,57.5,73.29,58.93,73.33,60.629999999999995C73.44,65.25,73.2,77.61999999999999,73.2,85.25C73.2,94.75,74,95.77,84.5,95.77C95.5,95.77,95.88,94.75,95.88,88.46" stroke-width="3" stroke-linecap="round" stroke-linejoin="round" style="-webkit-tap-highlight-color: rgba(0, 0, 0, 0); stroke-linecap: round; stroke-linejoin: round;"></path><text x="15.50" y="15.50" text-anchor="middle" font="10px &quot;Arial&quot;" stroke="none" fill="#808080" style="-webkit-tap-highlight-color: rgba(0, 0, 0, 0); text-anchor: middle; font: 5px Arial; display: none;" font-size="5px"><tspan style="-webkit-tap-highlight-color: rgba(0, 0, 0, 0);" dy="1.8685705661773682">1</tspan></text><text x="3.75" y="34.63" text-anchor="middle" font="10px &quot;Arial&quot;" stroke="none" fill="#808080" style="-webkit-tap-highlight-color: rgba(0, 0, 0, 0); text-anchor: middle; font: 5px Arial; display: none;" font-size="5px"><tspan style="-webkit-tap-highlight-color: rgba(0, 0, 0, 0);" dy="1.86856854438782">2</tspan></text><text x="9.50" y="48.13" text-anchor="middle" font="10px &quot;Arial&quot;" stroke="none" fill="#808080" style="-webkit-tap-highlight-color: rgba(0, 0, 0, 0); text-anchor: middle; font: 5px Arial; display: none;" font-size="5px"><tspan style="-webkit-tap-highlight-color: rgba(0, 0, 0, 0);" dy="1.8685666370391871">3</tspan></text><text x="9.50" y="61.63" text-anchor="middle" font="10px &quot;Arial&quot;" stroke="none" fill="#808080" style="-webkit-tap-highlight-color: rgba(0, 0, 0, 0); text-anchor: middle; font: 5px Arial; display: none;" font-size="5px"><tspan style="-webkit-tap-highlight-color: rgba(0, 0, 0, 0);" dy="1.8685704517364528">4</tspan></text><text x="8.50" y="76.63" text-anchor="middle" font="10px &quot;Arial&quot;" stroke="none" fill="#808080" style="-webkit-tap-highlight-color: rgba(0, 0, 0, 0); text-anchor: middle; font: 5px Arial; display: none;" font-size="5px"><tspan style="-webkit-tap-highlight-color: rgba(0, 0, 0, 0);" dy="1.8685704517364456">5</tspan></text><text x="18.50" y="69.50" text-anchor="middle" font="10px &quot;Arial&quot;" stroke="none" fill="#808080" style="-webkit-tap-highlight-color: rgba(0, 0, 0, 0); text-anchor: middle; font: 5px Arial; display: none;" font-size="5px"><tspan style="-webkit-tap-highlight-color: rgba(0, 0, 0, 0);" dy="1.868567705154419">6</tspan></text><text x="22.50" y="85.50" text-anchor="middle" font="10px &quot;Arial&quot;" stroke="none" fill="#808080" style="-webkit-tap-highlight-color: rgba(0, 0, 0, 0); text-anchor: middle; font: 5px Arial; display: none;" font-size="5px"><tspan style="-webkit-tap-highlight-color: rgba(0, 0, 0, 0);" dy="1.868567705154419">7</tspan></text><text x="45.50" y="24.50" text-anchor="middle" font="10px &quot;Arial&quot;" stroke="none" fill="#808080" style="-webkit-tap-highlight-color: rgba(0, 0, 0, 0); text-anchor: middle; font: 5px Arial; display: none;" font-size="5px"><tspan style="-webkit-tap-highlight-color: rgba(0, 0, 0, 0);" dy="1.8685715198516846">8</tspan></text><text x="58.50" y="13.50" text-anchor="middle" font="10px &quot;Arial&quot;" stroke="none" fill="#808080" style="-webkit-tap-highlight-color: rgba(0, 0, 0, 0); text-anchor: middle; font: 5px Arial; display: none;" font-size="5px"><tspan style="-webkit-tap-highlight-color: rgba(0, 0, 0, 0);" dy="1.8685705661773682">9</tspan></text><text x="42.50" y="36.50" text-anchor="middle" font="10px &quot;Arial&quot;" stroke="none" fill="#808080" style="-webkit-tap-highlight-color: rgba(0, 0, 0, 0); text-anchor: middle; font: 5px Arial; display: none;" font-size="5px"><tspan style="-webkit-tap-highlight-color: rgba(0, 0, 0, 0);" dy="1.8685715198516846">10</tspan></text><text x="37.50" y="51.50" text-anchor="middle" font="10px &quot;Arial&quot;" stroke="none" fill="#808080" style="-webkit-tap-highlight-color: rgba(0, 0, 0, 0); text-anchor: middle; font: 5px Arial; display: none;" font-size="5px"><tspan style="-webkit-tap-highlight-color: rgba(0, 0, 0, 0);" dy="1.8685715198516846">11</tspan></text><text x="46.50" y="46.63" text-anchor="middle" font="10px &quot;Arial&quot;" stroke="none" fill="#808080" style="-webkit-tap-highlight-color: rgba(0, 0, 0, 0); text-anchor: middle; font: 5px Arial; display: none;" font-size="5px"><tspan style="-webkit-tap-highlight-color: rgba(0, 0, 0, 0);" dy="1.8685666370391871">12</tspan></text><text x="49.50" y="65.50" text-anchor="middle" font="10px &quot;Arial&quot;" stroke="none" fill="#808080" style="-webkit-tap-highlight-color: rgba(0, 0, 0, 0); text-anchor: middle; font: 5px Arial; display: none;" font-size="5px"><tspan style="-webkit-tap-highlight-color: rgba(0, 0, 0, 0);" dy="1.868567705154419">13</tspan></text><text x="76.50" y="63.50" text-anchor="middle" font="10px &quot;Arial&quot;" stroke="none" fill="#808080" style="-webkit-tap-highlight-color: rgba(0, 0, 0, 0); text-anchor: middle; font: 5px Arial; display: none;" font-size="5px"><tspan style="-webkit-tap-highlight-color: rgba(0, 0, 0, 0);" dy="1.868567705154419">14</tspan></text></svg>