<?xml version="1.0" standalone="no"?>
<!DOCTYPE svg PUBLIC "-//W3C//DTD SVG 20010904//EN"
 "http://www.w3.org/TR/2001/REC-SVG-20010904/DTD/svg10.dtd">
<svg version="1.0" xmlns="http://www.w3.org/2000/svg"
 width="700.000000pt" height="700.000000pt" viewBox="0 0 700.000000 700.000000"
 preserveAspectRatio="xMidYMid meet">
<metadata>
Created by potrace 1.14, written by Peter Selinger 2001-2017
</metadata>
<g transform="translate(0.000000,700.000000) scale(0.100000,-0.100000)"
fill="#000000" stroke="none">
<path d="M4183 6235 c-67 -28 -72 -99 -13 -171 22 -27 45 -65 51 -84 6 -21 9
-131 7 -279 -3 -208 -5 -244 -18 -246 -8 -1 -49 -5 -91 -9 -42 -4 -84 -8 -95
-10 -10 -2 -55 -7 -99 -10 -44 -4 -91 -9 -105 -11 -45 -6 -114 -14 -180 -20
-36 -3 -81 -8 -100 -10 -242 -32 -354 -36 -485 -17 -94 13 -104 13 -128 -3
-15 -10 -32 -34 -38 -55 -10 -33 -9 -43 8 -72 21 -37 57 -52 149 -64 103 -14
330 -8 454 11 27 4 96 12 175 20 28 3 66 7 85 10 19 2 62 7 95 10 33 3 80 8
105 11 25 3 63 7 85 9 22 2 72 6 111 10 l70 6 -2 -193 c-5 -369 -6 -398 -12
-399 -4 -1 -18 -2 -32 -4 -112 -12 -148 -17 -170 -20 -14 -2 -50 -7 -80 -10
-30 -3 -66 -8 -80 -10 -105 -18 -287 -24 -451 -14 -76 5 -103 -11 -117 -65
-19 -71 24 -111 135 -127 71 -10 318 -7 383 5 34 6 116 17 170 22 25 2 61 6
80 9 19 2 60 7 90 11 30 3 66 8 80 9 14 2 54 7 90 10 36 4 75 8 86 10 12 2 48
6 80 10 33 3 73 8 89 10 17 2 62 7 100 10 39 4 78 9 87 11 9 1 47 5 85 9 37 3
104 10 148 15 44 5 152 7 240 6 l159 -3 28 28 c45 44 34 119 -22 149 -51 27
-286 30 -475 6 -34 -4 -117 -13 -202 -22 -58 -5 -77 -7 -187 -20 -33 -4 -72
-8 -87 -9 l-27 -2 3 211 c2 116 4 249 4 296 1 75 3 86 19 86 40 2 189 15 212
19 14 3 59 7 100 10 41 3 86 8 100 10 24 3 99 11 185 19 47 5 167 17 210 22
94 10 210 17 285 18 84 0 227 -11 239 -18 3 -3 21 2 39 10 37 15 63 63 55 104
-8 49 -46 73 -130 85 -77 11 -385 12 -433 1 -14 -3 -56 -8 -95 -11 -38 -3 -86
-7 -105 -10 -52 -6 -128 -14 -190 -20 -30 -3 -71 -8 -90 -10 -19 -2 -73 -7
-120 -10 -47 -4 -87 -8 -90 -10 -3 -2 -46 -6 -97 -10 l-92 -7 -3 274 c-3 270
-3 274 -29 328 -31 67 -115 158 -149 164 -14 2 -40 -2 -57 -9z"/>
<path d="M1388 6135 c-30 -17 -53 -74 -42 -107 3 -13 41 -57 83 -98 134 -131
298 -378 317 -477 7 -35 44 -78 75 -88 27 -9 86 13 104 38 21 30 19 76 -7 144
-67 182 -258 450 -401 564 -53 42 -84 48 -129 24z"/>
<path d="M2395 5129 c-70 -7 -137 -16 -185 -24 -27 -4 -155 -21 -235 -30 -27
-4 -61 -8 -75 -10 -14 -2 -54 -6 -90 -10 -36 -4 -76 -8 -90 -10 -14 -2 -52 -7
-85 -10 -33 -3 -78 -8 -100 -11 -90 -11 -113 -13 -175 -19 -36 -3 -99 -10
-140 -15 -41 -6 -91 -12 -110 -14 -19 -2 -64 -8 -100 -12 -81 -10 -247 -10
-322 1 -55 7 -58 7 -87 -23 -35 -35 -41 -83 -15 -120 21 -31 41 -40 118 -52
114 -18 188 -15 441 16 175 21 181 22 345 39 30 4 66 8 80 10 14 2 59 7 100
10 41 4 83 9 92 10 9 2 45 6 80 10 81 8 107 11 253 30 66 9 138 18 160 21 22
3 66 9 97 14 31 5 107 8 168 8 107 -1 112 -1 137 25 30 30 37 93 13 122 -36
43 -130 58 -275 44z"/>
<path d="M2267 4285 c-1 -2 -33 -5 -72 -9 -38 -4 -144 -22 -235 -40 -91 -19
-183 -37 -205 -40 -22 -4 -65 -11 -95 -16 -30 -5 -73 -12 -95 -15 -104 -15
-243 -37 -265 -42 -14 -3 -87 -6 -163 -7 -129 -1 -140 -3 -161 -23 -31 -30
-37 -76 -15 -113 22 -35 40 -45 99 -56 74 -13 161 -6 399 30 124 19 246 38
271 41 25 4 68 11 95 16 28 6 59 12 70 14 44 9 71 14 95 19 29 7 114 24 150
31 14 3 54 8 90 11 63 6 127 11 143 13 4 1 19 13 32 27 41 44 31 119 -18 146
-18 10 -111 20 -120 13z"/>
<path d="M5636 4163 c-1 -1 -51 -4 -111 -7 -61 -3 -135 -8 -165 -11 -30 -3
-86 -7 -125 -10 -123 -8 -219 -16 -255 -20 -19 -3 -64 -7 -100 -10 -36 -3 -81
-8 -100 -10 -19 -2 -64 -7 -100 -10 -36 -4 -78 -8 -95 -10 -31 -4 -92 -12
-160 -19 -22 -3 -69 -8 -105 -11 -36 -3 -76 -8 -90 -10 -14 -2 -52 -6 -85 -10
-33 -3 -71 -7 -85 -10 -14 -2 -47 -7 -75 -10 -27 -3 -66 -7 -85 -10 -74 -9
-197 -24 -240 -29 -25 -3 -97 -12 -160 -20 -63 -8 -140 -17 -170 -20 -30 -4
-65 -8 -77 -10 -12 -3 -53 -7 -90 -11 -37 -3 -76 -8 -85 -11 -13 -4 -18 0 -18
16 0 70 -77 117 -140 85 -40 -21 -48 -39 -55 -126 -3 -41 -10 -105 -16 -144
-5 -38 -12 -88 -15 -110 -5 -45 -9 -67 -24 -145 -6 -30 -13 -71 -16 -90 -3
-19 -24 -107 -46 -195 -22 -88 -42 -170 -45 -183 -11 -45 27 -97 79 -107 35
-7 84 20 101 57 13 28 54 175 72 258 21 95 34 161 39 190 3 19 8 46 10 60 11
56 26 148 31 190 4 25 7 46 8 47 1 0 31 4 67 8 36 4 72 8 80 10 9 2 47 6 85
10 39 3 81 8 95 10 14 2 49 7 79 10 30 4 61 8 70 10 9 1 48 6 86 10 76 7 77 8
245 29 63 8 140 17 170 21 30 3 73 8 95 11 22 3 51 7 65 9 14 2 54 6 90 10 36
4 79 9 95 11 17 2 55 6 85 9 30 3 71 8 90 11 62 7 113 13 180 19 36 3 81 8
100 10 19 2 64 7 100 10 36 3 81 8 100 10 19 2 73 7 120 10 47 4 101 8 120 10
98 10 281 19 412 19 172 1 183 -4 153 -61 -27 -51 -104 -143 -196 -234 -42
-42 -82 -86 -88 -97 -25 -46 -5 -103 44 -126 58 -28 86 -13 211 116 99 101
178 204 209 273 67 146 12 270 -138 310 -50 13 -222 26 -231 18z"/>
<path d="M4574 3478 c-55 -14 -83 -81 -57 -135 8 -18 19 -33 23 -33 11 0 58
-99 66 -140 4 -19 6 -289 4 -600 -4 -1018 -4 -1254 4 -1338 20 -220 87 -338
229 -406 123 -58 265 -73 652 -70 148 1 284 4 300 7 17 3 54 9 84 12 133 16
251 74 303 150 48 70 67 156 69 318 2 82 -2 109 -15 129 -35 54 -109 56 -151
6 -23 -27 -25 -39 -26 -129 -1 -54 -2 -102 -3 -106 -1 -5 -5 -26 -10 -47 -4
-21 -14 -49 -22 -62 -26 -39 -125 -68 -274 -80 -93 -7 -551 -8 -605 0 -22 2
-65 8 -95 12 -83 10 -156 41 -184 77 -13 18 -31 57 -40 87 -29 106 -29 99 -22
1499 3 534 0 589 -44 688 -30 68 -94 149 -127 160 -16 6 -41 6 -59 1z"/>
<path d="M2120 3449 c-58 -10 -123 -21 -145 -24 -22 -4 -42 -8 -45 -10 -3 -1
-30 -6 -61 -9 -31 -4 -67 -9 -80 -11 -13 -3 -78 -12 -144 -20 -66 -9 -131 -18
-145 -20 -14 -2 -54 -6 -90 -10 -36 -4 -78 -9 -95 -11 -52 -9 -183 -12 -217
-5 -45 10 -81 -4 -101 -38 -39 -67 -9 -129 74 -151 51 -14 227 -7 369 15 19 2
60 7 90 10 64 7 393 53 430 60 14 3 39 7 55 10 17 2 66 11 110 20 84 16 183
21 225 11 68 -17 135 44 120 109 -4 20 -13 42 -20 50 -34 41 -173 51 -330 24z"/>
<path d="M3773 3278 c-12 -6 -29 -25 -37 -43 -14 -29 -14 -38 0 -91 29 -103
23 -189 -25 -374 -161 -623 -310 -997 -534 -1335 -103 -155 -170 -237 -311
-376 -95 -94 -100 -100 -99 -139 1 -65 51 -106 113 -93 29 5 184 148 265 243
329 386 548 862 741 1605 65 252 75 345 49 460 -22 101 -33 123 -66 141 -32
16 -65 17 -96 2z"/>
<path d="M2270 2642 c-14 -2 -122 -18 -240 -37 -118 -19 -235 -37 -260 -40
-25 -3 -52 -8 -60 -10 -8 -2 -37 -6 -65 -10 -27 -3 -75 -10 -105 -15 -30 -5
-120 -19 -200 -30 -80 -12 -158 -23 -175 -25 -26 -4 -34 1 -58 33 -34 47 -74
71 -107 66 -88 -14 -118 -96 -60 -166 26 -32 34 -57 59 -190 16 -84 39 -211
50 -283 12 -71 25 -152 31 -180 5 -27 12 -72 15 -99 3 -27 12 -85 20 -130 15
-89 21 -126 31 -201 3 -27 7 -52 9 -55 2 -3 6 -30 10 -60 13 -100 55 -144 124
-129 55 12 76 48 72 126 -1 30 0 31 51 38 29 4 65 8 79 11 14 2 43 6 64 9 52
6 106 14 135 20 13 3 42 7 65 10 22 3 63 10 90 15 28 5 68 12 90 15 23 2 83
11 135 19 134 21 165 25 218 31 71 8 99 23 117 62 23 47 10 91 -33 118 -38 23
-38 17 10 220 61 258 69 292 99 430 45 205 44 252 -8 336 -39 62 -136 110
-203 101z m43 -212 c13 -19 12 -34 -9 -133 -13 -62 -28 -130 -34 -152 -14 -58
-61 -257 -66 -280 -5 -26 -68 -309 -69 -312 0 -1 -14 -4 -30 -7 -55 -9 -280
-45 -320 -51 -23 -3 -50 -7 -60 -9 -11 -2 -69 -11 -130 -20 -60 -10 -121 -19
-135 -21 -92 -16 -137 -17 -137 -4 0 8 -3 32 -7 54 -15 91 -28 171 -31 190 -3
23 -18 118 -20 125 -1 3 -5 32 -9 65 -4 33 -12 76 -16 95 -5 19 -11 57 -15 83
-3 26 -10 71 -16 100 -23 119 -23 126 3 132 30 6 139 23 203 30 28 3 57 8 65
10 8 2 65 11 125 20 61 9 121 18 135 20 14 2 86 13 160 24 74 12 182 29 240
39 149 25 156 25 173 2z"/>
</g>
</svg>
